<svg id="Layer_1" data-name="Layer 1" xmlns="http://www.w3.org/2000/svg" viewBox="0 0 635.79999 543.09998"><defs><style>.cls-1{fill:#fcdfd8;}.cls-2{fill:#7f1b12;}.cls-3{fill:#f39a7f;}.cls-4{fill:#f7f0ed;}.cls-5{fill:#e06343;}.cls-6{fill:#e4e1e0;}.cls-7{fill:#fbf6f5;}.cls-8{fill:#a2a09f;}.cls-9{fill:#b2afad;}.cls-10{fill:#7f7d7d;}.cls-11{fill:#f7baa7;}.cls-12{fill:#636161;}.cls-13{fill:#5a7234;}.cls-14{fill:#b09671;}.cls-15{fill:#d89a3d;}.cls-16{fill:#377b64;}.cls-17{fill:#70874a;}.cls-18{fill:#409877;}.cls-19{fill:#f4bc67;}.cls-20{fill:#d24f2e;}</style></defs><path class="cls-1" d="M292.8,259.7c-46.5,3.1-64.3,5.3-101.1,12-38.6,7.1-77.2,15.8-99.5,28.5-33.7,19.3-22,42.8.8,62.3,15.2,13.1,35,27.6,16.7,41.1-9,6.7-25.9,11.8-40.2,17.5C31,436.4,10.7,455.8,2.8,475c-9.4,22.9,3.1,49.1,60.4,60.2,20.7,4,45.1,5.6,69.2,6.7,28.4,1.4,58.8,2.3,86.1-1.8,28.1-4.2,48.4-13,64-22,38.1-21.9,57-47,102.8-67.3,36.8-16.3,88.3-28.2,141.1-38.3,26.1-5,53.4-9.8,74-17.2,28.2-10.2,40.4-24.7,33.6-37.7-6.7-13-31.4-24.1-64.7-30.5-31.4-6.1-69-8-104.4-11.3s-71.4-8.6-89.9-19.1c-12.7-7.1-15.8-15.9-25.6-23.6s-31.5-12.1-56.6-13.4"/><path class="cls-2" d="M382.7,129.5c6.7-1.9,13.8,1.2,19.5,5.4s10.6,9.6,16.5,13.4c6.6,4.3,14.3,6.6,21.2,10.5s13.2,10.4,14,18.7c.7,8.3-7.4,12.9-12.2,19.5-6,8.1-4.5,21.6-14.1,23.1l-116.9,9.7c-14.4,2.8-23.5-15.8-19.9-25.3,3-8.1,12-12.5,19.7-17,8.8-5.2,17.1-11.8,21.1-20.8,6-13.5,1.6-31.1,12.4-41.7,5.2-5.1,13.2-7.4,20.7-6.4,7.5.9,15.1,5.6,20.1,10.9"/><path class="cls-3" d="M334.6,382.4s-33.6,9.4-52.8,7.3a5.38128,5.38128,0,0,1-2.5-.9,5.77524,5.77524,0,0,1-1.8-2c-1-2-.4-4.4,7.6-4.5l29.7-15.6,19.8,10.2,0,5.5"/><path class="cls-4" d="M402.6,331.5l2.8,19.2a298.46234,298.46234,0,0,1-70.8,26.2c-30.4,6.9-49.5,5.4-49.5,5.4a49.606,49.606,0,0,1-30.4-16.2c-22.6-41.1,75.7-48.6,75.7-48.6s2.1-10.3,8.3-17h68.7c2.5,3.9,5.4,15.1,5.4,15.1,21,2.7,56,23,56,23,24.5,12.9,17.9,29.3,17.9,29.3-8.2,28.5-72.3,17.6-72.3,17.6-30.7-4.7-79.7-3.2-79.7-3.2v-5.6"/><path class="cls-3" d="M405.1,348.3c8.6,1.1,47.3-5.2,49.4-5.5h.2c2.1-.5,4.1-.8,6.2-1.1a2.54122,2.54122,0,0,0,1.3-.5,1.99043,1.99043,0,0,0,.8-1.2,2.57249,2.57249,0,0,0,.1-1.5,3.293,3.293,0,0,0-.7-1.3c-1.6-1.4-4.5-1.4-6.3-1.3a1.97789,1.97789,0,0,1-1.1-.2c-.3-.2-.7-.3-.9-.6-2.9-3.1-17.9-2.4-17.9-2.4-8.6.6-15-5.9-15-5.9a11.31778,11.31778,0,0,0-1.3-1,7.68125,7.68125,0,0,0-5.3-1.1,8.17672,8.17672,0,0,0-4.8,2.4,28.43956,28.43956,0,0,1-7,4.4l1.5,10Z"/><path class="cls-5" d="M331.72,250.50977h-.02v-.01Z"/><path class="cls-3" d="M450.9,295.5c1-17.4-14.7-54.4-14.7-54.4l-19.3,8.6s12.4,30.9,18,37.8l-.3.2c5.5,1.9,10.1,5.5,15.4,8.2Z"/><path class="cls-3" d="M391.9,200.4l-3.2,29.8H366.3l-14-29.6a16.9036,16.9036,0,0,0,11.4-17.9,17.732,17.732,0,0,0,8.4,2.1,18.879,18.879,0,0,0,8.4-2,16.48108,16.48108,0,0,0,2.6,10.8A16.96111,16.96111,0,0,0,391.9,200.4Z"/><path class="cls-5" d="M412.7,250.49976l9.6,54.6c-35.6,14.1-102.9,0-102.9,0l12.3-54.59h.02l-.02-.01v.01c-16.44,2.33-25.7-12.11-25.7-12.11a76.65944,76.65944,0,0,1,10.4-17.1c2.4-3.2,4.6-5.6,5.6-6.7.5-.6.9-1.1,1.4-1.7,8.9-10.9,28.9-12.3,28.9-12.3s17.8,45.3,39.8,0c0,0,20,1.4,28.9,12.3.5.6.9,1.2,1.4,1.7,2.5,2.7,11.3,12.7,16.1,23.8C438.5,238.39978,429.2,252.89978,412.7,250.49976Z"/><path class="cls-3" d="M365.4,306.1a19.80407,19.80407,0,0,1-9-1.7c-33.6,2-60.3-13.8-60.3-13.8-1-17.4,13.06761-48.38008,13.06761-48.38008l.48823.48861c4.86527,4.69638,10.29879,7.44556,16.76295,7.9983l2.05629.05907S319.6,274.3,314,281.2c0,0,36.9,10.2,42.4,13.4,0,0,10-5,16.2,0l2,10.5Z"/><path class="cls-5" d="M331.72,250.50977h-.02v-.01Z"/><path class="cls-6" d="M433.2,262.8l-40-.1a.90143.90143,0,0,0-.5.1.7808.7808,0,0,0-.4.4l-29.7,47.3c-.1.2-.2.3-.2.5a.74928.74928,0,0,0,.1.5.78085.78085,0,0,0,.4.4.90153.90153,0,0,0,.5.1h42.2a.74936.74936,0,0,0,.5-.1.78085.78085,0,0,0,.4-.4L434,264.3a.90143.90143,0,0,0,.1-.5.7493.7493,0,0,0-.1-.5.7808.7808,0,0,0-.4-.4C433.5,262.9,433.4,262.8,433.2,262.8Z"/><path class="cls-3" d="M450.1,295.9c-4,1.7-21,8.4-47.4,10.3-2.6,1-12.3,3.1-17.8-.5a3.4472,3.4472,0,0,1-1.2-1.2,3.1666,3.1666,0,0,1-.4-1.6,2.99569,2.99569,0,0,1,.6-1.8,3.53123,3.53123,0,0,1,1.4-1.3,20.93163,20.93163,0,0,1,8.2-2.3,2.37572,2.37572,0,0,1,.3-1.2,1.96223,1.96223,0,0,1,.9-.9,4.20848,4.20848,0,0,1,3.1-.3,32.83856,32.83856,0,0,1,6.7,2.2c.1,0,.2.1.3.2,11.5-6.5,26.5-8.9,29.8-9.8C439.9,289.5,444.7,293.2,450.1,295.9Z"/><path class="cls-3" d="M395.6,155.1c0,12.1-6.2,23.2-15,27.6a16.54426,16.54426,0,0,1-8.4,2,17.73169,17.73169,0,0,1-8.4-2.1c-8.7-4.5-14.9-15.6-14.9-27.6a36.38774,36.38774,0,0,1,1.1-8.7l.4-14.4L393.8,144l.2-1.5A44.92366,44.92366,0,0,1,395.6,155.1Z"/><path class="cls-2" d="M348.8,155.1c12.7,2.7,23.2-6.4,29.4-9.5a6.16362,6.16362,0,0,1,4.2-.6,6.4666,6.4666,0,0,1,3.6,2.2c3.4,4.3,8.8,10.1,12.4,8.8l-1.1-19.7L348.9,129Z"/><path class="cls-7" d="M380.1,358.2l25-9.9s32.3-1.3,45.3,5.7C450.4,354,460.7,360.3,380.1,358.2Z"/><path class="cls-7" d="M390.3,333.2s-89.9,24.2-100.7,18.2C289.6,351.4,281.8,342.3,390.3,333.2Z"/><path class="cls-3" d="M349.9,158.9s-2.3-.9-3-.3c-1.8,1.4-1.5,2.6,2.9,8.8,0,.2.1.3.3.4a.758.758,0,0,0,.4.2.90143.90143,0,0,0,.5-.1c.1-.1.3-.2.4-.3"/><path class="cls-3" d="M394.7,158.9s2.3-.9,3-.3c1.8,1.4,1.5,2.6-2.9,8.8,0,.2-.1.3-.3.4a.75805.75805,0,0,1-.4.2.90142.90142,0,0,1-.5-.1c-.1-.1-.3-.2-.4-.3"/><path class="cls-4" d="M372.6,294.6s-7.2-10.2-8.3-15.7c-.1-.3,1-.9,1.2-.7,1.4,1.5,3.9,5.7,8.2,14.6"/><path class="cls-8" d="M123.5,448.8Zm21.5,46Z"/><path class="cls-4" d="M222.3,470.1c-2.4-.4-4.5.5-6.6,2.4a36.39222,36.39222,0,0,1-4.6-6.3c-2.8-4.9-8.4-1.3-8.4-1.3-1.5,3.2.5,5.8,2.5,7.5a7.81815,7.81815,0,0,0-3.2,1.8,8.02681,8.02681,0,0,0-1.9,3.2,40.66424,40.66424,0,0,1-5.3-3.1c-15.8-8-33.5-5.7-33.5-5.7a23.47875,23.47875,0,0,1-7.8,1.9,14.19584,14.19584,0,0,1-4.1-.3l-20-40.4a31.09642,31.09642,0,0,1,19.1-9.4,39.24525,39.24525,0,0,1,18.9,2.3c19.5,7.2,19.5-1.7,19.5-1.7-6.8-6.5-9.1-14.9-10-20.1l18.8-12.6a29.20086,29.20086,0,0,1,16.5,2.1l11.8,4.8a40.52609,40.52609,0,0,1-11.2,26.7,58.05556,58.05556,0,0,1,4.2,14.2,82.65076,82.65076,0,0,1,1.2,12.2v1.8C218.2,462.4,221,468,222.3,470.1Z"/><path class="cls-9" d="M167.8,475.7s-4.1-3.2-14.9-1.8c0,0-4.5-.1-4.9-4.1a8.799,8.799,0,0,0,1.5.5c5.1-12,12.6-25.9,2.7-37.9-5.1-6.9-15.4-6.5-22.7-2.5a33.01536,33.01536,0,0,0-2.8,3.5,4.75563,4.75563,0,0,0-2.3.7A41.12819,41.12819,0,0,0,111,449.4c-3,5.8-5.3,12.3-4.8,18.9.5,6.4,2.9,12.9,7.8,17.3,5.8,5.2,13.2,6.3,20.6,7l2.6.3a4.86868,4.86868,0,0,0,1.2.1l.5.1a41.49652,41.49652,0,0,1,4.8,1.1l1,.4.3.1h-.1l.2.1.3.1-.2-.1c.6.3,1.3.7,1.9,1l.9.6.4.3a6.03566,6.03566,0,0,1,.8.8l.3.4-.1-.1.2.3-.1-.1c1.5,2.2,4.5,3.4,6.9,1.8,2.1-1.4,3.5-4.7,1.8-7-3.9-5.5-9.8-8.3-16.3-9.4-3.3-.6-6.7-.8-10.1-1.2h-.3a.60118.60118,0,0,1-.4-.1l-.8-.1a15.52861,15.52861,0,0,1-2.1-.4c-.7-.2-1.7-.4-2.5-.7l-.8-.3-.5-.2-.3-.1h0c-.6-.3-1.3-.7-1.9-1l-.4-.2a1.75583,1.75583,0,0,1-.5-.4l.5.4a2.18134,2.18134,0,0,1-.5-.4c-.4-.4-.9-.8-1.3-1.2l-.7-.8c.5.8-.8-.8,0,0v-.1a17.39522,17.39522,0,0,1-1.1-1.8c-.2-.4-.8-1.1-.8-1.6l.2.6a4.87605,4.87605,0,0,1-.3-.7l-.2-.7a10.548,10.548,0,0,1-.6-2.4c0-.2-.1-.5-.1-.7l-.1-.4v-.2a1.0873,1.0873,0,0,0,.1.5,3.67261,3.67261,0,0,1-.1-1.8v-3a.60123.60123,0,0,1,.1-.4v.2a23.39146,23.39146,0,0,1,.9-3.8l.6-1.8c.1-.4.3-.7.4-1.1,0-.1.1-.2.1-.3l-.1.2c0-.1.1-.1.1-.2a31.67819,31.67819,0,0,1,2.1-4.1c.1,8.8,3,24.3,21.1,25.8,0,0,16.9-.3,21.6,1.4C163.4,480.4,173.7,482.1,167.8,475.7Zm-44.3-26.9Z"/><path class="cls-9" d="M200.2,477.4c3.6,1.8,8.3,3.4,11.7,2.2a2.187,2.187,0,0,0,.5-.3.54993.54993,0,0,0,.3-.5,1.26834,1.26834,0,0,0,.1-.6,1.42143,1.42143,0,0,0-.2-.6c-.5-.8-1.6-1.9-4.4-3.2a15.67539,15.67539,0,0,1-3-2,6.80842,6.80842,0,0,0-5,5Z"/><path class="cls-9" d="M223.1,471a3.91482,3.91482,0,0,1-.8-1c-2.4-.4-4.5.5-6.6,2.4,2.6,2.8,5.9,5.3,9.3,4.5C225,477,228.9,475.7,223.1,471Z"/><path class="cls-10" d="M116.5,464.4a.60123.60123,0,0,1,.1-.4v.2h0Z"/><path class="cls-10" d="M118.4,457.5a.75813.75813,0,0,1,.2-.4l-.2.4Z"/><path class="cls-10" d="M119.6,476.7c.5.8-.7-.9,0,0Z"/><path class="cls-10" d="M124.5,480.4h0l-.2-.1Z"/><path class="cls-10" d="M131.5,482.1h.1a.60113.60113,0,0,1-.4-.1h.1C131.3,482.1,131.4,482.1,131.5,482.1Z"/><path class="cls-10" d="M144.9,494.7l.5.2-.2-.1Z"/><path class="cls-10" d="M147.8,496.4l.3.2-.1-.1Z"/><path class="cls-10" d="M149.6,498.1l-.1-.1-.1-.1Z"/><path class="cls-10" d="M195.9,388.4c.4,9.5-10,15.2-18.8,12.6Z"/><path class="cls-3" d="M197.6,408.5a8.02778,8.02778,0,0,1,5.3,0c.3.1.4.4.1.6l-2.4,1.9c-.1.1-.2.1-.4.1s-.3,0-.4-.1l-2.4-1.8C197.1,408.9,197.2,408.6,197.6,408.5Z"/><path class="cls-4" d="M186.3,410.3a34.6005,34.6005,0,0,0-18,2.8c-.4.2-.1.9.4.7a34.78253,34.78253,0,0,1,17.7-2.7c.4,0,.4-.8-.1-.8Z"/><path class="cls-4" d="M186.3,413.1a12.73812,12.73812,0,0,0-7.8,3.5c-.4.3.2.9.5.5a11.74,11.74,0,0,1,7.3-3.3c.5.1.5-.7,0-.7Z"/><path class="cls-4" d="M185.2,407.3a29.38132,29.38132,0,0,0-9.8-.4c-.5.1-.3.8.2.7a27.05486,27.05486,0,0,1,9.4.4C185.5,408.2,185.7,407.4,185.2,407.3Z"/><path class="cls-9" d="M195.9,388.4a22.05507,22.05507,0,0,0-6.1,2.1s-5.4-8-11.2-9.8c0,0-3-1.4-2.1,15.4a31.80518,31.80518,0,0,0,1.1,8.2C186.5,406.9,196.3,397.9,195.9,388.4Z"/><path class="cls-11" d="M185.7,391.5c-1.9-6.3-7.6-10.5-7.7-10.5-2.3,2.1-1.3,16.8-1.3,16.8A23.7069,23.7069,0,0,1,185.7,391.5Z"/><path class="cls-9" d="M205.2,388.3a24.47765,24.47765,0,0,1,6.4,1.8s5.2-7.4,11-9c0,0,3-1.3,1.7,15.4a31.10472,31.10472,0,0,1-1.3,8C214.1,406.9,204.5,397.8,205.2,388.3Z"/><path class="cls-11" d="M215.3,391.6c2-6.3,7.9-10.3,7.9-10.3,2.3,2.2.9,16.8.9,16.8A24.637,24.637,0,0,0,215.3,391.6Z"/><path class="cls-12" d="M191.3,404.1a2.28656,2.28656,0,0,0,1.9-2.5c0-1.4-.8-2.5-1.9-2.5s-1.9,1.1-1.9,2.5A2.28655,2.28655,0,0,0,191.3,404.1Z"/><path class="cls-12" d="M209.3,404.1a2.28656,2.28656,0,0,0,1.9-2.5c0-1.4-.8-2.5-1.9-2.5s-1.9,1.1-1.9,2.5A2.28655,2.28655,0,0,0,209.3,404.1Z"/><path class="cls-4" d="M214.2,409.3a35.13106,35.13106,0,0,1,18.1,2.8c.5.2.1.9-.4.7a34.78258,34.78258,0,0,0-17.7-2.7C213.7,410.1,213.7,409.4,214.2,409.3Z"/><path class="cls-4" d="M214.2,412.2a12.32561,12.32561,0,0,1,7.8,3.6c.4.3-.2.9-.5.5a11.74,11.74,0,0,0-7.3-3.3C213.7,412.9,213.7,412.1,214.2,412.2Z"/><path class="cls-4" d="M215.3,406.4a29.38132,29.38132,0,0,1,9.8-.4c.5.1.3.8-.2.7a27.05462,27.05462,0,0,0-9.4.4C215,407.2,214.8,406.5,215.3,406.4Z"/><path class="cls-9" d="M179.8,425.6s1.8,2.9,2.8,4.4a10.88427,10.88427,0,0,1,2.1,4.8,4.62368,4.62368,0,0,1-.4,2.6,4.14385,4.14385,0,0,1-1.8,1.9c-3,1.4-6.4-2-9.7-1.3-1.7.4-3.1,1.9-4.8,1.8a4.52312,4.52312,0,0,1-2.5-1.2,9.05411,9.05411,0,0,1-2.9-5.1c-.2-1-.2-2-.4-2.9-.4-3.1-1.3-7.5-3.3-9.9a44.19269,44.19269,0,0,1,6.3,1.4c1.7.5,4.1,1.5,7.2,2.4a32.89694,32.89694,0,0,0,4.3.9C177.8,425.5,178.8,425.6,179.8,425.6Z"/><path class="cls-9" d="M195.2,443.3c-2-.4-4.3-.4-5.9,1-.6.6-1.1,1.3-1.7,1.9-1.7,1.7-4.2,2.3-6.2,3.6s-3.7,3.9-2.5,6c1.4,2.2,4.6,1.7,7.2,2.3,2.3.5,4.2,2.1,6.5,2.3a5.918,5.918,0,0,0,2.9-.7,7.10283,7.10283,0,0,0,2.3-1.9,11.40584,11.40584,0,0,0,2.2-5.6c.3-2,.5-4.4-.8-6a5.91619,5.91619,0,0,0-4-2.9Z"/><path class="cls-9" d="M218.5,450a9.1281,9.1281,0,0,0-1.3-.8,35.57,35.57,0,0,1-4.1-1.7c-2.7-1.7-3.6-5.3-3.4-8.5a19.523,19.523,0,0,1,5.4-12.3l.1.2A75.94274,75.94274,0,0,1,218.5,450Z"/><path class="cls-13" d="M187,233.4a21.232,21.232,0,0,0-3.2-18.3c-1.7-2.2-3.7-4.1-5.3-6.3-8.8-12.7,1.2-33.1-9.4-44.3-3.8-4.1-9.5-5.8-13.6-9.5-3-2.7-5-6.3-7.7-9.2s-6.7-5.3-10.6-4.3c-3.6,8.2-7.2,17.6-3.9,25.9,1.9,4.9,6,8.7,8.4,13.5,4.5,9.1,1.8,19.9,2.3,30a11.83946,11.83946,0,0,0,1.3,5.6c1.9,3.1,5.7,4.2,8.7,6.1,8.2,5.3,10.6,17.6,19.7,21,5.7,2.1,13,.3,17.3,4.6"/><path class="cls-14" d="M200.9,356.7c0,.1-.1.3-.1.4l-.3.3.2-.8.1-.3A.75587.75587,0,0,1,200.9,356.7Z"/><path class="cls-15" d="M173.2,285c27.2,0,49.5-3.4,51.6-7.8a1.44539,1.44539,0,0,0,.2-.7c0-4.7-23.2-8.5-51.8-8.5s-51.8,3.8-51.8,8.5S144.6,285,173.2,285Z"/><path class="cls-16" d="M159.8,270.4v.6a2.35337,2.35337,0,0,1-.2-.8l.1.1A.09792.09792,0,0,0,159.8,270.4Z"/><path class="cls-16" d="M160,262.1v1.6l-.2-.2A7.8436,7.8436,0,0,1,160,262.1Z"/><path class="cls-16" d="M160,203.7l-.3-1.5a1.44528,1.44528,0,0,1,.2.7A1.9493,1.9493,0,0,1,160,203.7Z"/><path class="cls-16" d="M188.8,88.19977c-1.2-1.5-2.5-2.8-3.8-4.2.05-.01.1-.01.14-.02h.03c1.23,1.32,2.45,2.55,3.59,3.95,0,.01.01.03.01.04C188.78,88.04974,188.79,88.11975,188.8,88.19977Z"/><path class="cls-17" d="M190.71,90.66974c-.45-.69-.91-1.37-1.42-2.06-.01-.01-.02-.02-.02-.03-.12-.16-.24-.32-.37-.48a1.73914,1.73914,0,0,0-.12-.14c0-.01-.01-.02-.02-.03-1.14-1.4-2.36-2.63-3.59-3.95-.02-.03-.05-.05-.07-.08l-.00995-.01-1.59-1.59-.02-.01995a5.0326,5.0326,0,0,1,2.42-.28,6.80684,6.80684,0,0,1,2.4.8C190.57,84.56976,190.99,87.79974,190.71,90.66974Z"/><path class="cls-17" d="M185.09,83.88977h-.03c-.02,0-.04.01-.06.01l-1.6-1.6a.2348.2348,0,0,1,.08-.01995l.02.01995Z"/><path class="cls-17" d="M190.71,90.66974c0,.04-.01.09-.01.13-.6-.9-1.2-1.8-1.9-2.7a.42761.42761,0,0,0-.02-.11v-.03a1.73914,1.73914,0,0,1,.12.14c.13.16.25.32.37.48,0,.01.01.02.02.03C189.8,89.29974,190.26,89.97974,190.71,90.66974Z"/><path class="cls-17" d="M189.27,88.57977c-.15-.18-.31-.38-.49-.59a.03493.03493,0,0,1-.01-.02c-1.06-1.24-2.52-2.8-3.63-3.99a.64565.64565,0,0,0-.08-.09c-.16-.16-.3-.32-.44-.47l.47.47.00995.01c.02.03.05.05.07.08,1.23,1.32,2.45,2.55,3.59,3.95.01.01.02.02.02.03a1.73914,1.73914,0,0,1,.12.14C189.03,88.25977,189.15,88.41974,189.27,88.57977Z"/><path class="cls-17" d="M188,255c-1,1.8-1.8,3.8-2.7,5.6a11.64577,11.64577,0,0,1-4.4,5.4c-2.5,1.4-5.7,1-8.4,1.5a13.91084,13.91084,0,0,0-5.2,2.1c-1.2.8-2.4,1.7-3.7,2.5-.1,3.7-.3,9.1-.4,12.7-.1,1.9-3.9,2.3-3.8-.2.1-2.1.2-5.8.3-7.8.1-2.1.1-4,.2-5.9v-.6l-.1-.1-.1-.1-.1-.1c0-.1-.1-.1-.1-.2a5.89934,5.89934,0,0,0-2.5-2.2,20.05679,20.05679,0,0,0-8-1.6c-3.5-.1-6.9.3-10.4.4-3.8.2-7.7-.1-11.2-2a20.11333,20.11333,0,0,1-6.1-5.5c-3.4-4.6-5.2-10.2-8-15.2a23.70939,23.70939,0,0,0-5.6-7c-2.9-2.4-5.9-4.5-8-7.8a22.40309,22.40309,0,0,1-3.6-9.9c-.4-3.1-.5-7.6,1.7-10.2,2.2-2.5,6.1-2.2,8.8-.8,3.1,1.6,5.1,4.9,8.4,6.1,3.6,1.2,7.5.6,11.1,1.5a20.00625,20.00625,0,0,1,8.3,4.3c5.1,4.1,8.5,10.1,11,16,2.7,6.3,4.5,12.9,7.8,18.9a29.832,29.832,0,0,0,5.8,7.9c.3.3.6.5.9.8l.2.2v-1.6c.2-11.8.1-23.7-.8-35.5v-.2c-.1-1-.2-2.1-.3-3.2s-.2-2-.3-3.1c-.6-5.7-1.5-11.4-2.6-17.1a5.8543,5.8543,0,0,0-1.5-2c-1.9-1.6-4.6-2.2-7-2.6l-.4-.1c-.5-.1-1-.1-1.4-.2-.5-.1-1.3-.1-1.9-.2-1.9-.1-3.7-.2-5.6-.2-7.1-.2-15-.4-20-6.3-4.1-4.9-5.1-11.5-9-16.4-4.4-5.6-12.3-5.3-17.9-9-6-3.9-8.2-11.1-8.7-18-.3-3.6-.4-7.9,1.8-11,2.1-3.1,6.1-4.5,9.3-2.5,2.7,1.7,3.9,5.2,7,6.4s6.8,1,10.1,1.8a16.72054,16.72054,0,0,1,9.1,5.8c2.4,2.9,3.7,6.4,4.8,10s2.2,7.3,4.5,10.3c2.6,3.3,5.9,6.1,8.9,9.1l3.7,3.6,3,3,2.4,2.3,6.5,6.3c-1.2-4.8-2.7-9.6-4.4-14.4a238.923,238.923,0,0,0-11.9-26.9c-.4-.8-.8-1.6-1.2-2.3-.4-.8-.8-1.5-1.2-2.3-1.4-2.6-2.7-5.1-4.1-7.7-2.5-4.6-4.9-9.2-7.4-13.8h-.2c-11.2-.8-22.8-2.3-33.5-5.8-4.7-1.5-9.8-3.5-12.8-7.6-3.1-4.1-3-9.8-6.5-13.7-3-3.4-7.2-7.4-4.6-12.4,2.8-5.3,9.6-4.9,14.5-3.2A30.42862,30.42862,0,0,1,93,91.4a53.93049,53.93049,0,0,1,4.7,6c1.4,2.2,2.5,4.6,3.8,6.9a10.27351,10.27351,0,0,0,2.5,3,8.79664,8.79664,0,0,0,3.5,1.7,69.14713,69.14713,0,0,1,7.7,2.5,6.3754,6.3754,0,0,1,1.4.8c-1.8-3.7-3.5-7.4-5.2-11.1-5.7-13.1-10.2-26.8-12-41.1a1.61243,1.61243,0,0,1,.6-1.3,1.76033,1.76033,0,0,1,1.3-.6,1.61246,1.61246,0,0,1,1.3.6,1.76033,1.76033,0,0,1,.6,1.3c.2,1.7.5,3.5.8,5.2a149.52314,149.52314,0,0,0,8.7,29.3c-.6-9.8.6-19.6,5-28.5,1.4-2.8,3.3-5.4,4.6-8.2a32.36949,32.36949,0,0,0,2.1-9.2c.8-5.5,2.2-11.2,6.9-14.7,3.8-2.9,10-3.9,13.8-.4,4.6,4.2,2,10.8-.8,15.1a54.594,54.594,0,0,0-4.7,7.7,23.1892,23.1892,0,0,0-2.1,8.9c-.1,3.1.2,6.3-.8,9.2a14.08824,14.08824,0,0,1-4.6,6.4c-1.9,1.6-4.1,3.1-5.9,4.7a18.21975,18.21975,0,0,0-4.6,6.1c-2.2,4.6-2.9,9.9-3,15a1.70178,1.70178,0,0,1-.1.7c5.7,12,12.3,23.7,18.4,35.5a7.45778,7.45778,0,0,0,.7,1.2l.5,1a22.56186,22.56186,0,0,1,1.1,2.2c1.4,2.7,2.7,5.4,4.1,8.1a34.54362,34.54362,0,0,1-.1-8.5c.1-.6.2-1.1.3-1.7a14.61972,14.61972,0,0,1,.5-2l.6-1.8c.7-2,1.6-4,2.4-5.9a34.647,34.647,0,0,0,2.8-11.5c.2-3.9-.6-7.6-.9-11.5-.3-3.5.4-6.9,2.8-9.5a16.5414,16.5414,0,0,1,7.2-4c1.4-.4,4.98926-1.40611,6.38925-1.8061l2.49324,1.465c.4.5,2.00355-.958,2.30356-.358.1.2.023,2.62888.123,2.82888,2.1,2.9,3.3278,2.99573,4.42781,6.39573,2.3,6.7,3.1738,14.37808,4.6738,21.27808.6,2.7.79893,8.22353,1.59893,10.82354.2.7.78395,1.88289.984,2.58289s-2.04492-.354-1.84492.246c-5.2,4.5-12.64862,9.044-18.14862,13.044a11.32272,11.32272,0,0,0-1.3,1c-.4.3-1.1.8-1.6,1.2a17.38109,17.38109,0,0,0-1.5,1.3,24.6135,24.6135,0,0,0-7.8,10.7c1.9,4.6,3.7,9.3,5.2,14.1a168.737,168.737,0,0,1,4.7,18.6l.3,1.5c1.3,7.1,2.3,14.3,2.9,21.6.1,1.3.2,2.5.3,3.8s.2,2.4.2,3.5v.2c.3,5.8.5,11.5.5,17.3a27.3617,27.3617,0,0,1,4.1-7,34.46258,34.46258,0,0,1,2.6-2.8l.7-.7a4.34986,4.34986,0,0,1,.7-.6c.5-.5,1-.9,1.5-1.4s.8-.7,1.2-1.1c2.2-2.4,3.2-5.6,4.4-8.6a49.02005,49.02005,0,0,1,5.2-10.2,10.91582,10.91582,0,0,1,1.3-1.7,18.26021,18.26021,0,0,0,1.3-1.6,13.65011,13.65011,0,0,1,1.7-1.7c-.5,5.2-.8,10.3-.9,15.5C187.3,237.1,187.5,246,188,255Z"/><path class="cls-17" d="M207,221a25.33192,25.33192,0,0,0,.2,5.5c.2,1,.4,1.9.6,2.9-2.4,1-4.8,1.9-7.1,3.1a21.73925,21.73925,0,0,0-9.4,9.8c-.1-2.7-.1-5.3-.1-8a222.11233,222.11233,0,0,1,1.3-24.5,19.55085,19.55085,0,0,1,7.8-2.3,16.2597,16.2597,0,0,1,4.9.4c1.6.4,3.7,1,4.2,2.7.5,1.8-.9,3.6-1.4,5.1A22.6175,22.6175,0,0,0,207,221Z"/><path class="cls-18" d="M188.6,265.7c-.2-3.6-.5-7.1-.6-10.7a8.79118,8.79118,0,0,1,.6-1C188.4,257.9,188.5,261.8,188.6,265.7Z"/><path class="cls-18" d="M244.8,45.1c-.1,2-.3,4.1-.5,6.1-.4,3.5-.8,6.9-1.3,10.4a1.42118,1.42118,0,0,0-.2.6l-3.3-2.8c.7-4.8,1.2-9.5,1.6-14.3C241.3,42.7,245,42.6,244.8,45.1Z"/><path class="cls-13" d="M286.1,174.99976c-5.3-4.6-11.9.1-17,2.5a68.25778,68.25778,0,0,1-19.2,5.6c-5.9.8-12.1,1.1-17.3,4.3-8.6,5.3-9.8,16.1-12,25-1,4.3-2.4,8.7-5.4,12a21.48754,21.48754,0,0,1-7.4,4.8c-2.4,1-4.8,1.9-7.1,3.1a21.73933,21.73933,0,0,0-9.4,9.8c-.1-2.7-.1-5.3-.1-8a222.10949,222.10949,0,0,1,1.3-24.5c.3-2.3.6-4.7.9-7l.1-.1c.4-.6.8-1.1,1.2-1.7,4.5-6.3,9.6-12.5,16.5-16.19995,7.8-4.2,17.2-3.8,25.5-6.7a22.50713,22.50713,0,0,0,10.5-6.9c3.1-3.9,4.4-8.7,6.4-13.2a29.5608,29.5608,0,0,1,8.4-10.8c3.7-3,7.8-5.4,11.6-8.2,7.5-5.4,15.2-13.8,13.7-23.8a10.66418,10.66418,0,0,0-3-6.3,5.04665,5.04665,0,0,0-3.2-1.5,4.72327,4.72327,0,0,0-3.4,1c-1.8,1.4-2.7,3.6-4.3,5.1a14.51827,14.51827,0,0,1-6,3.2c-5.3,1.4-10.8-1.4-15.9,1-4.4,2-6.9,6.8-9.4,10.7-5.4,8.6-10.9,17.3-17.9,24.8a76.604,76.604,0,0,1-11.9,10.1c-3.8,2.7-7.2,5.6-9.5,9.7-2.7,4.6-4.3,9.7-6.1,14.7.1-.4.2-.9.3-1.3,4.2-15.2,11.1-29.4,18-43.5,7.1-14.4,14.1-28.7,19.1-44,.1-.2.1-.4.2-.6a1.76457,1.76457,0,0,0,.9-.8c2.2-3.8,7.4-3.8,11.2-4.1a21.75937,21.75937,0,0,0,7.2-1.2,12.9664,12.9664,0,0,0,5.7-4.4c2.6-3.6,3.7-8.1,7.8-10.5s9-3,13-5.5,7.3-6.8,7.6-11.8a10.926,10.926,0,0,0-1.6-6.8,10.41816,10.41816,0,0,0-5.3-4.4,9.3744,9.3744,0,0,0-6.6,0c-2.5,1-3.7,3.2-5.8,4.8-3.6,2.9-8.7,2.9-12.6,5.3a19.84935,19.84935,0,0,0-5.8,6.1c-1.9,2.7-3.7,5.5-5.5,8.3l-5.3,8c1.6-6.5,2.8-13.1,3.8-19.7a1.42149,1.42149,0,0,0-.2.6l-3.3-2.8a227.79761,227.79761,0,0,1-7.4,33.5c-1.5,5.1-3.3,10-5.2,14.9a64.92359,64.92359,0,0,0-.1-10.8,42.02525,42.02525,0,0,0-2-9.2,75.7728,75.7728,0,0,0-4.2-8.6,29.21742,29.21742,0,0,1-3.3-9.1c-.5-3.3-.4-6.6-.7-10-.4-5.6-1.8-11.7-6.4-15.3-5.4-4.3-12.6-3.3-18.9-2.3a1.37445,1.37445,0,0,0-.8.5,1.93341,1.93341,0,0,0-.5.9,21.254,21.254,0,0,0-.5,8.7,19.53937,19.53937,0,0,0,3.1,8.1,44.11864,44.11864,0,0,0,5.8,6.4,14.12783,14.12783,0,0,1,4.2,7.4c1.2,5.9-.3,11.9,1.4,17.7a25.0135,25.0135,0,0,0,9.6,13.6c2.5,1.8,5.4,2.8,6.5,6,.9,2.8,1,5.7,1.4,8.6-2.5,5.7-5.2,11.2-8,16.8s-5.4,10.9-8,16.4c.2-1.2.5-2.3.7-3.5v.1c.7-3.9,1.1-7.8-.5-11.5a27.23894,27.23894,0,0,0-5.6-7.5c-2.1-2.2-4.3-4.4-5.5-7.3-1.4-3.3-1.4-7-1.3-10.5.2-7.4,1.6-15.5-2.4-22.2l-.1-.2c-.03-.04-.06-.09-.09-.13-.45-.69-.91-1.37-1.42-2.06-.01-.01-.02-.02-.02-.03-.12-.16-.24-.32-.37-.48a1.73914,1.73914,0,0,0-.12-.14c0-.01-.01-.02-.02-.03-1.14-1.4-2.36-2.63-3.59-3.95-.02-.03-.05-.05-.07-.08l-.00995-.01-1.59-1.59-.02-.01995-.58-.58-9.8-10c-2.6-2.7-5.4-6.5-9.4-6.6-3.4-.1-6.4,2.2-8.2,5-4.6,6.8-1.8,15.6,2.7,21.7,1.6,2,3.3,4,5.1,5.9l1.3,1.6a9.54664,9.54664,0,0,1,1.2,1.6c.1.2.3.3.4.5a33.42361,33.42361,0,0,1,4.8,9.4c2.3,6.7,3.2,13.80005,4.7,20.7.6,2.7,1.2,5.5,2,8.1.2.7.4,1.3.6,2s.5,1.3.7,1.9a29.57992,29.57992,0,0,0,3.8,7c4.1,5.7,9.8,10,13.4,16.1a22.80988,22.80988,0,0,1,2,4.5c-1.2,3.1-2.3,6.2-3.3,9.4a160.91215,160.91215,0,0,0-6.3,32.2c-.5,5.2-.8,10.3-.9,15.5-.2,9,0,17.9.5,26.9a8.79154,8.79154,0,0,1,.6-1c-.2,3.9-.1,7.8,0,11.69995v.6c.2,3.5.5,7,.8,10.5.2,2,.5,6.5.7,8.5.2,2.4,4.4,2.2,4.2-.3-.4-5.5-1.5-13.2-1.9-18.8,1.4-3.4,5.1-4.6,8.3-5.3,4.2-1,8.5-1.3,12.4-3.1,4-1.8,7.5-4.9,11-7.7a37.16106,37.16106,0,0,1,11-6.5c7.5-2.7,16.6-3.6,22.3-9.8,3.1-3.4,4.3-7.8,4.9-12.3.5-4.5.4-9.3,2.1-13.5,2-5,6.9-7.5,11.5-9.8,4.5-2.3,9.4-5,12-9.6a.30964.30964,0,0,0,.1-.2l.1-.2C290.1,183.89978,289.7,178.19977,286.1,174.99976Zm-93.8,88,.1-.1a25.2882,25.2882,0,0,0,.1,2.8A24.52415,24.52415,0,0,1,192.3,262.99976Z"/><path class="cls-18" d="M192.4,265.7c-.1-.9-.1-1.8-.2-2.7l.1-.1A27.15315,27.15315,0,0,1,192.4,265.7Z"/><path class="cls-19" d="M224.8,277.2c-2.1,4.4-24.4,7.8-51.6,7.8-28.6,0-51.8-3.8-51.8-8.5,0,0-9,43.3,23.4,80.1l.3.3c.8,2.4,13,4.3,27.9,4.3,13.8,0,25.3-1.6,27.5-3.8l.2-.8.1-.3c0,.1.1.2.1.3a2.99455,2.99455,0,0,1-.4.8C231.2,323.2,225.8,282.9,224.8,277.2Z"/><path class="cls-20" d="M288.3,24.4c-2,6.4-7.1,11.3-12,15.9-3.2,3-6.4,6-10.3,8-4.2,2.2-8.9,3.1-13.2,4.9-4.1,1.7-8.2,4.4-9.8,8.5h0a6.03277,6.03277,0,0,1-1.9-.6,4.70759,4.70759,0,0,1-1.5-1.3l-.2-.2-.5-.5a64.31411,64.31411,0,0,1-14.5-45.9,6.87387,6.87387,0,0,1,.5-2.4c1.2-2.2,4.4-2.4,6.8-1.8,2.5.7,4.9,1.9,7.5,1.4s4.3-2.5,6-4.3c4.1-4.1,10.4-7.8,15.4-4.9,2,1.2,3.8,7.8,5.8,9,4.4,2.6,9.9-4.1,14.8-2.4C287.8,9.8,290.3,18,288.3,24.4Z"/><path class="cls-20" d="M104,64.5l17.9-24a8.981,8.981,0,0,0,1.8-4.4,8.40051,8.40051,0,0,0-.8-4.7c-3.8-7.3-14.5-1.5-21.2-5.2-2-1.1-3.6-3.1-5.9-3.2-5.1-.5-6.6,7.4-11.3,9.6-4.6,2.2-10.8-2.1-15.1,1.4a7.246,7.246,0,0,0-1.8,2.5,6.54562,6.54562,0,0,0-.5,3.1c.1,3.7,2.4,6.8,4.8,9.4,7.7,8.3,17.2,13.9,28.4,15.8a5.53771,5.53771,0,0,0,3.6-.2Z"/></svg>