<svg id="Layer_1" data-name="Layer 1" xmlns="http://www.w3.org/2000/svg" viewBox="0 0 635.82 543.09"><defs><style>.cls-1{fill:#fcdfd8;}.cls-2{fill:#7f1b12;}.cls-3{fill:#f39a7f;}.cls-4{fill:#f7f0ed;}.cls-5{fill:#e06343;}.cls-6{fill:#e4e1e0;}.cls-7{fill:#fbf6f5;}.cls-8{fill:#a2a09f;}.cls-9{fill:#b2afad;}.cls-10{fill:#7f7d7d;}.cls-11{fill:#f7baa7;}.cls-12{fill:#636161;}.cls-13{fill:#5a7234;}.cls-14{fill:#b09671;}.cls-15{fill:#d89a3d;}.cls-16{fill:#377b64;}.cls-17{fill:#70874a;}.cls-18{fill:#409877;}.cls-19{fill:#f4bc67;}.cls-20{fill:#d24f2e;}</style></defs><path class="cls-1" d="M292.76,259.74c-46.54,3.05-64.32,5.3-101.07,12-38.65,7.08-77.22,15.8-99.49,28.5-33.69,19.27-22,42.76.78,62.33,15.21,13.06,35,27.59,16.73,41.13-9,6.67-25.94,11.85-40.24,17.5C31,436.42,10.68,455.83,2.83,475-6.58,497.93,6,524.13,63.2,535.18c20.67,4,45.06,5.56,69.19,6.74,28.38,1.41,58.79,2.27,86.09-1.81,28.13-4.21,48.4-13,64-22,38.06-21.88,57-47,102.81-67.31,36.79-16.29,88.33-28.21,141.07-38.28,26.12-5,53.42-9.75,74-17.17,28.18-10.18,40.36-24.71,33.64-37.66s-31.43-24.09-64.71-30.54c-31.42-6.11-69-8-104.41-11.32s-71.38-8.62-89.91-19.09c-12.68-7.12-15.77-15.92-25.59-23.62s-31.5-12.09-56.58-13.48"/><path class="cls-2" d="M382.67,129.47c6.7-1.85,13.79,1.16,19.48,5.37s10.59,9.59,16.49,13.44c6.64,4.35,14.31,6.57,21.16,10.51s13.25,10.44,14,18.72-7.38,13-12.16,19.5c-6,8.15-4.52,21.62-14.13,23.14l-116.88,9.74c-14.41,2.77-23.53-15.8-19.94-25.31,3-8.06,12-12.46,19.72-17,8.79-5.19,17.11-11.84,21.08-20.82,6-13.53,1.58-31.07,12.36-41.74,5.19-5.09,13.18-7.35,20.69-6.43s15.07,5.59,20.09,10.86"/><path class="cls-3" d="M334.63,382.42s-33.56,9.39-52.82,7.28a5.29,5.29,0,0,1-2.52-.9,5.46,5.46,0,0,1-1.77-2c-1-2-.44-4.39,7.59-4.48l29.69-15.6,19.79,10.18v5.56"/><path class="cls-4" d="M402.63,331.54l2.85,19.17a298.4,298.4,0,0,1-70.81,26.15c-30.41,6.87-49.48,5.44-49.48,5.44a49.9,49.9,0,0,1-30.41-16.16C232.13,325,330.46,317.5,330.46,317.5s2.13-10.28,8.3-17h68.66c2.48,3.86,5.44,15.13,5.44,15.13,21,2.73,56,23,56,23,24.5,12.9,17.89,29.3,17.89,29.3-8.17,28.5-72.35,17.58-72.35,17.58-30.73-4.7-79.74-3.16-79.74-3.16v-5.56"/><path class="cls-3" d="M405.09,348.33c8.57,1.08,47.3-5.16,49.4-5.51h.18a53,53,0,0,1,6.25-1.07,2.56,2.56,0,0,0,1.34-.55,2.5,2.5,0,0,0,.84-1.18,2.65,2.65,0,0,0,.08-1.45,2.58,2.58,0,0,0-.7-1.27c-1.56-1.39-4.52-1.45-6.34-1.34a2.44,2.44,0,0,1-1.1-.16,2.47,2.47,0,0,1-.92-.61c-2.91-3.13-17.92-2.41-17.92-2.41-8.63.56-15-5.88-15-5.88a11.15,11.15,0,0,0-1.33-1,8.27,8.27,0,0,0-5.3-1.11,8.17,8.17,0,0,0-4.83,2.44,25.19,25.19,0,0,1-7,4.38l1.46,10Z"/><path class="cls-5" d="M331.72,250.45,319.45,305.1s67.27,14.15,102.86,0Z"/><path class="cls-3" d="M450.94,295.52c1-17.37-14.7-54.42-14.7-54.42l-19.32,8.55s12.42,30.92,18,37.79l-.46.13c5.52,1.91,10.28,5.65,15.62,8.35Z"/><path class="cls-3" d="M365.36,306.11a20.86,20.86,0,0,1-9-1.67c-33.59,2-60.34-13.77-60.34-13.77-1-17.36,13.09-48.5,13.09-48.5l8.11,6,11.24,2.59S319.51,274.3,314,281.18c0,0,36.86,10.18,42.4,13.42,0,0,10-5,16.22,0l2,10.5Z"/><path class="cls-3" d="M391.89,200.43l-3.2,29.79H366.33l-14-29.61c13.26-5,11.37-17.94,11.37-17.94a18.06,18.06,0,0,0,16.83.06,16.92,16.92,0,0,0,11.35,17.7Z"/><path class="cls-5" d="M422.31,305.1l-9.56-54.65c16.51,2.37,25.77-12.09,25.77-12.09-4.76-11.06-13.58-21.05-16.07-23.76-.5-.54-.95-1.11-1.41-1.68-8.93-10.91-28.92-12.3-28.92-12.3-22,45.34-39.78,0-39.78,0s-20,1.39-28.92,12.3c-.47.57-.91,1.14-1.41,1.68-1,1.12-3.16,3.5-5.64,6.7a82.11,82.11,0,0,0-10.43,17.06s9.26,14.46,25.78,12.09Z"/><path class="cls-6" d="M433.17,262.81l-40-.05a1.05,1.05,0,0,0-.49.13,1,1,0,0,0-.37.35l-29.66,47.25a1,1,0,0,0-.16.52,1,1,0,0,0,.12.52,1,1,0,0,0,.38.39,1.07,1.07,0,0,0,.52.14l42.17.05a1,1,0,0,0,.51-.13,1,1,0,0,0,.37-.38l27.53-47.24a1,1,0,0,0,.15-.52,1.06,1.06,0,0,0-.13-.52,1,1,0,0,0-.38-.37A1.07,1.07,0,0,0,433.17,262.81Z"/><path class="cls-3" d="M450.08,295.92c-4,1.7-21,8.38-47.41,10.25-2.57,1-12.31,3.05-17.77-.5a3,3,0,0,1-1.59-2.82,3.77,3.77,0,0,1,.59-1.81,3.91,3.91,0,0,1,1.37-1.31,19.89,19.89,0,0,1,8.23-2.26,2.31,2.31,0,0,1,.27-1.23,2.28,2.28,0,0,1,.87-.9,4.47,4.47,0,0,1,3.09-.33,28.42,28.42,0,0,1,6.66,2.19.56.56,0,0,1,.29.21c11.52-6.51,26.48-8.9,29.79-9.84C439.94,289.48,444.71,293.22,450.08,295.92Z"/><path class="cls-3" d="M395.6,155.08c0,12.06-6.23,23.2-15,27.65a18.06,18.06,0,0,1-16.83-.06c-8.72-4.49-14.91-15.58-14.91-27.59A33.9,33.9,0,0,1,350,146.4l.4-14.4,43.4,12.08.17-1.5A43,43,0,0,1,395.6,155.08Z"/><path class="cls-2" d="M348.84,155.09c12.74,2.67,23.22-6.36,29.4-9.52a6.27,6.27,0,0,1,4.19-.56,6.38,6.38,0,0,1,3.61,2.23c3.42,4.3,8.85,10.07,12.36,8.79l-1.1-19.67-48.42-7.25Z"/><path class="cls-7" d="M380.14,358.25l25-9.92s32.34-1.28,45.27,5.69C450.4,354,460.72,360.33,380.14,358.25Z"/><path class="cls-7" d="M390.33,333.18s-89.87,24.18-100.7,18.22C289.63,351.4,281.81,342.29,390.33,333.18Z"/><path class="cls-3" d="M349.9,158.91s-2.26-.89-3-.33c-1.82,1.39-1.5,2.63,2.91,8.78a1,1,0,0,0,.26.4.92.92,0,0,0,.43.19.83.83,0,0,0,.47-.06.78.78,0,0,0,.36-.31"/><path class="cls-3" d="M394.65,158.91s2.26-.89,3-.33c1.82,1.39,1.48,2.63-2.92,8.78a.8.8,0,0,1-.26.4.88.88,0,0,1-.9.13.89.89,0,0,1-.36-.31"/><path class="cls-4" d="M372.57,294.6s-7.24-10.23-8.32-15.74c-.05-.29,1-.9,1.22-.69,1.41,1.55,3.94,5.7,8.24,14.64"/><path class="cls-8" d="M123.49,448.78v0Zm21.56,46h0Z"/><path class="cls-4" d="M222.33,470.08c-2.42-.36-4.51.55-6.57,2.41a37.57,37.57,0,0,1-4.59-6.26c-2.83-4.88-8.4-1.32-8.4-1.32-1.5,3.16.49,5.83,2.5,7.53a7.27,7.27,0,0,0-3.18,1.85,7.46,7.46,0,0,0-1.89,3.16,45.42,45.42,0,0,1-5.27-3.06c-15.83-8-33.45-5.7-33.45-5.7a22.93,22.93,0,0,1-7.76,1.92,14.16,14.16,0,0,1-4.05-.35l-20-40.41a31.08,31.08,0,0,1,19.12-9.37,39.65,39.65,0,0,1,18.87,2.28c19.55,7.23,19.47-1.7,19.47-1.7-6.81-6.45-9.13-14.87-10-20.11L196,388.37a28.4,28.4,0,0,1,16.46,2.13l11.83,4.78a40.83,40.83,0,0,1-11.15,26.66,53.32,53.32,0,0,1,4.15,14.17,86.94,86.94,0,0,1,1.19,12.15v1.8C218.16,462.43,221,468,222.33,470.08Z"/><path class="cls-9" d="M167.83,475.67s-4.13-3.21-14.89-1.82c0,0-4.52-.1-4.87-4.07a6.31,6.31,0,0,0,1.51.53c5.07-12,12.64-25.95,2.71-37.9-5.13-6.89-15.35-6.49-22.68-2.51a31,31,0,0,0-2.8,3.47,4.34,4.34,0,0,0-2.26.71,41.3,41.3,0,0,0-13.4,15.34c-3,5.75-5.32,12.31-4.85,18.91.48,6.43,2.92,12.94,7.79,17.3,5.76,5.2,13.18,6.27,20.58,7.05l2.57.27c.38.05.78.07,1.16.14l.49.09a35.41,35.41,0,0,1,4.76,1.13l1,.36.28.1h-.11l.18.07.33.14-.19-.08c.65.33,1.3.66,1.91,1l.86.56.36.34c.26.24.53.5.77.76l.35.39a1.13,1.13,0,0,1-.1-.13l.23.28-.11-.13c1.54,2.16,4.48,3.39,6.91,1.81,2.14-1.38,3.47-4.65,1.81-7-3.88-5.47-9.82-8.27-16.28-9.42-3.34-.59-6.73-.83-10.13-1.24h-.29a1.59,1.59,0,0,1-.38-.06l-.76-.12c-.71-.12-1.41-.25-2.11-.4s-1.65-.41-2.45-.66l-.81-.27-.46-.17-.3-.12h0c-.62-.34-1.26-.65-1.86-1l-.41-.22a1.28,1.28,0,0,1-.46-.37l.46.37-.53-.44c-.44-.39-.86-.79-1.26-1.21l-.69-.78c.53.81-.75-.84,0,0v-.06c-.38-.59-.77-1.16-1.11-1.77-.22-.39-.81-1.14-.78-1.57l.23.57-.26-.66-.24-.67c-.25-.79-.47-1.58-.65-2.39a4.11,4.11,0,0,0-.13-.7l-.06-.36v-.23a2,2,0,0,0,.06.52,5.08,5.08,0,0,1-.14-1.78v-3.12a1.42,1.42,0,0,1,.06-.45v.24a31.62,31.62,0,0,1,.94-3.84c.2-.61.4-1.21.62-1.83.13-.36.28-.72.42-1.08a1,1,0,0,1,.11-.28l-.07.2.1-.21c.65-1.4,1.34-2.77,2.1-4.07.14,8.83,3,24.27,21.09,25.84,0,0,16.88-.27,21.58,1.4C163.36,480.38,173.73,482.12,167.83,475.67Zm-44.3-26.92v0Z"/><path class="cls-9" d="M200.18,477.45c3.6,1.77,8.31,3.43,11.75,2.25a1.39,1.39,0,0,0,.54-.31,1.54,1.54,0,0,0,.35-.52,1.46,1.46,0,0,0,.08-.62,1.37,1.37,0,0,0-.19-.59c-.46-.82-1.64-1.91-4.36-3.22a16.61,16.61,0,0,1-3-2,7.38,7.38,0,0,0-3.22,1.84A7.49,7.49,0,0,0,200.18,477.45Z"/><path class="cls-9" d="M223.12,471a6,6,0,0,1-.79-.95c-2.42-.36-4.51.55-6.56,2.41,2.57,2.78,5.92,5.26,9.3,4.49C225,477,228.87,475.74,223.12,471Z"/><path class="cls-10" d="M116.46,464.45a1.42,1.42,0,0,1,.06-.45v.24h0Z"/><path class="cls-10" d="M118.45,457.53a2.5,2.5,0,0,1,.15-.38l-.11.3Z"/><path class="cls-10" d="M119.61,476.68c.53.81-.75-.84,0,0Z"/><path class="cls-10" d="M124.49,480.43h.08l-.29-.12Z"/><path class="cls-10" d="M131.46,482.12h.11a2.32,2.32,0,0,1-.38-.06h.08A.7.7,0,0,0,131.46,482.12Z"/><path class="cls-10" d="M144.87,494.72l.52.21-.19-.07Z"/><path class="cls-10" d="M147.84,496.37l.31.23-.13-.09Z"/><path class="cls-10" d="M149.63,498.13l-.11-.13a.51.51,0,0,1-.09-.13Z"/><path class="cls-10" d="M195.93,388.38c.37,9.52-10,15.19-18.83,12.58Z"/><path class="cls-3" d="M197.56,408.53a8.37,8.37,0,0,1,5.28,0c.29.11.36.4.13.57L200.53,411a.64.64,0,0,1-.37.13.59.59,0,0,1-.37-.13l-2.41-1.83C197.14,408.93,197.23,408.63,197.56,408.53Z"/><path class="cls-4" d="M186.31,410.25a35.23,35.23,0,0,0-18,2.77c-.45.19-.05.86.39.66A34.4,34.4,0,0,1,186.35,411c.48.05.48-.72,0-.77Z"/><path class="cls-4" d="M186.31,413.12a12.61,12.61,0,0,0-7.79,3.55c-.36.34.18.88.54.53a11.68,11.68,0,0,1,7.25-3.28c.49,0,.49-.81,0-.77Z"/><path class="cls-4" d="M185.22,407.34a27.72,27.72,0,0,0-9.82-.37c-.49.07-.29.8.2.74a26.88,26.88,0,0,1,9.42.36C185.49,408.18,185.7,407.44,185.22,407.34Z"/><path class="cls-9" d="M195.93,388.38a22.37,22.37,0,0,0-6.08,2.1s-5.39-8-11.15-9.78c0,0-2.95-1.39-2.09,15.37a34.8,34.8,0,0,0,1.11,8.25C186.52,406.93,196.3,397.9,195.93,388.38Z"/><path class="cls-11" d="M185.68,391.52c-1.91-6.34-7.59-10.45-7.66-10.51-2.31,2.14-1.28,16.79-1.28,16.79A23.42,23.42,0,0,1,185.68,391.52Z"/><path class="cls-9" d="M205.16,388.28a28.24,28.24,0,0,1,6.36,1.78s5.23-7.4,11-9c0,0,3-1.33,1.7,15.41a30.84,30.84,0,0,1-1.3,8C214.07,406.91,204.54,397.8,205.16,388.28Z"/><path class="cls-11" d="M215.33,391.64c2-6.28,7.85-10.25,7.92-10.31,2.26,2.21.86,16.83.86,16.83A23.63,23.63,0,0,0,215.33,391.64Z"/><path class="cls-12" d="M191.3,404.08a2.57,2.57,0,1,0-1.89-2.48A2.25,2.25,0,0,0,191.3,404.08Z"/><path class="cls-12" d="M209.33,404.08a2.57,2.57,0,1,0-1.9-2.48A2.25,2.25,0,0,0,209.33,404.08Z"/><path class="cls-4" d="M214.21,409.32a35.13,35.13,0,0,1,18.07,2.76c.45.21.06.86-.38.67a34.3,34.3,0,0,0-17.69-2.67C213.73,410.14,213.73,409.38,214.21,409.32Z"/><path class="cls-4" d="M214.21,412.19a12.58,12.58,0,0,1,7.8,3.55c.35.33-.19.87-.54.54a11.8,11.8,0,0,0-7.26-3.33C213.73,413,213.73,412.15,214.21,412.19Z"/><path class="cls-4" d="M215.31,406.4a27.94,27.94,0,0,1,9.82-.36c.49.07.28.8-.2.73a26.64,26.64,0,0,0-9.42.38C215,407.25,214.83,406.52,215.31,406.4Z"/><path class="cls-9" d="M179.82,425.59s1.8,2.91,2.83,4.36a10.27,10.27,0,0,1,2.11,4.82,4.44,4.44,0,0,1-.41,2.59,4.38,4.38,0,0,1-1.79,1.9c-3,1.42-6.41-2-9.66-1.25-1.69.38-3.11,1.85-4.83,1.75a4.33,4.33,0,0,1-2.52-1.23,9.5,9.5,0,0,1-2.91-5.09c-.19-1-.23-1.95-.35-2.93-.39-3.05-1.31-7.47-3.25-9.91a42.89,42.89,0,0,1,6.33,1.42c1.65.55,4.11,1.47,7.18,2.38a35.34,35.34,0,0,0,4.32.93A26.28,26.28,0,0,0,179.82,425.59Z"/><path class="cls-9" d="M195.21,443.26c-2-.43-4.34-.36-5.88,1-.61.57-1.09,1.27-1.68,1.86-1.69,1.7-4.18,2.3-6.22,3.56s-3.73,3.95-2.47,6c1.35,2.23,4.64,1.68,7.17,2.28,2.26.53,4.23,2.15,6.55,2.26a6.37,6.37,0,0,0,2.91-.67,6.44,6.44,0,0,0,2.29-1.92,11.68,11.68,0,0,0,2.18-5.58c.3-2,.49-4.38-.78-6a7,7,0,0,0-4.05-2.87Z"/><path class="cls-9" d="M218.51,450a6.86,6.86,0,0,0-1.33-.79,31.18,31.18,0,0,1-4.05-1.69c-2.7-1.71-3.6-5.27-3.45-8.47a18.93,18.93,0,0,1,5.43-12.29l.07.22A73.62,73.62,0,0,1,218.51,450Z"/><path class="cls-13" d="M187,233.42a21.06,21.06,0,0,0-3.23-18.3c-1.66-2.21-3.74-4.07-5.31-6.34-8.75-12.69,1.16-33.11-9.4-44.31-3.82-4.05-9.52-5.76-13.64-9.49-3-2.69-5-6.28-7.69-9.21s-6.7-5.28-10.56-4.29c-3.57,8.22-7.18,17.55-3.9,25.9,1.94,4.93,6,8.71,8.38,13.47,4.45,9.08,1.8,19.88,2.3,30a11.93,11.93,0,0,0,1.34,5.63c1.85,3.09,5.72,4.16,8.73,6.12,8.15,5.28,10.6,17.58,19.69,21,5.67,2.13,13,.28,17.26,4.6"/><path class="cls-14" d="M200.91,356.72a1,1,0,0,1-.12.42,1.12,1.12,0,0,1-.28.33l.23-.75.08-.32A.62.62,0,0,1,200.91,356.72Z"/><path class="cls-15" d="M173.24,285c27.19,0,49.47-3.43,51.6-7.79a1.65,1.65,0,0,0,.19-.68c0-4.69-23.2-8.48-51.79-8.48s-51.79,3.79-51.79,8.48S144.63,285,173.24,285Z"/><path class="cls-16" d="M159.77,270.39V271a5.8,5.8,0,0,1-.21-.82.43.43,0,0,0,.11.12A.58.58,0,0,0,159.77,270.39Z"/><path class="cls-16" d="M160,262.11v1.61l-.25-.18A11.9,11.9,0,0,1,160,262.11Z"/><path class="cls-16" d="M160,203.69c-.09-.49-.18-1-.28-1.48.09.22.15.43.22.66A1.88,1.88,0,0,1,160,203.69Z"/><path class="cls-16" d="M188.82,88.17c-1.19-1.45-2.52-2.82-3.83-4.15a3,3,0,0,1,2,.31,3.41,3.41,0,0,1,1.21,1.55A8.69,8.69,0,0,1,188.82,88.17Z"/><path class="cls-16" d="M190.71,90.82a25.68,25.68,0,0,0-1.89-2.66,8.69,8.69,0,0,0-.65-2.29A3.41,3.41,0,0,0,187,84.32a3,3,0,0,0-2-.31l-1.61-1.62a5.4,5.4,0,0,1,2.49-.33,5.3,5.3,0,0,1,2.36.85C190.57,84.61,191,87.92,190.71,90.82Z"/><path class="cls-16" d="M188.82,88.17c-1.19-1.45-2.52-2.82-3.83-4.15a3,3,0,0,1,2,.31,3.41,3.41,0,0,1,1.21,1.55A8.69,8.69,0,0,1,188.82,88.17Z"/><path class="cls-17" d="M188,255c-1,1.8-1.83,3.78-2.75,5.64a12.2,12.2,0,0,1-4.39,5.42c-2.47,1.43-5.66,1-8.39,1.53a13.79,13.79,0,0,0-5.23,2.1c-1.25.83-2.44,1.71-3.72,2.48-.12,3.67-.26,9.06-.44,12.71-.1,1.86-3.86,2.31-3.77-.15.07-2.1.18-5.75.25-7.85s.13-4,.19-5.93v-.58a.68.68,0,0,1-.12-.12.43.43,0,0,1-.11-.12l-.05-.06-.12-.18a5.46,5.46,0,0,0-2.48-2.18,19.77,19.77,0,0,0-8.05-1.62c-3.48-.14-6.93.27-10.38.43-3.82.18-7.7-.13-11.15-2A18.86,18.86,0,0,1,121.2,259c-3.4-4.63-5.19-10.18-8-15.17a24.16,24.16,0,0,0-5.64-7c-2.94-2.44-5.87-4.53-8-7.76a23.22,23.22,0,0,1-3.63-9.94c-.39-3.12-.53-7.64,1.71-10.18s6.08-2.22,8.82-.83c3.1,1.58,5.07,4.94,8.37,6.06,3.56,1.18,7.45.59,11.09,1.47a21.28,21.28,0,0,1,8.33,4.28c5.07,4.07,8.45,10.06,11,16,2.66,6.28,4.52,12.91,7.75,18.93a31,31,0,0,0,5.76,7.87,11.25,11.25,0,0,0,.92.76l.25.18v-1.61c.2-11.84.11-23.69-.8-35.49v-.2c-.08-1-.18-2.11-.28-3.16s-.19-2-.29-3.06c-.62-5.73-1.46-11.44-2.58-17.09a5.45,5.45,0,0,0-1.49-2c-1.89-1.6-4.57-2.21-7-2.59l-.45-.07c-.48-.07-1-.13-1.45-.18s-1.25-.14-1.88-.18c-1.87-.14-3.73-.19-5.59-.24-7.09-.19-15-.39-20-6.26-4.11-4.86-5.15-11.45-9-16.42-4.4-5.63-12.3-5.3-17.94-9-6-3.94-8.18-11.15-8.66-18-.25-3.61-.35-7.89,1.79-11s6.09-4.54,9.32-2.53c2.75,1.69,3.9,5.15,7,6.4s6.82,1,10.14,1.82a17.44,17.44,0,0,1,9.12,5.75c2.39,2.92,3.67,6.42,4.78,10s2.18,7.27,4.52,10.33c2.57,3.34,5.91,6.11,8.92,9.05l3.72,3.58,3,3,2.38,2.3,6.54,6.3c-1.24-4.84-2.71-9.65-4.43-14.36a242.44,242.44,0,0,0-11.91-26.9c-.39-.79-.79-1.56-1.19-2.33s-.78-1.53-1.18-2.29q-2-3.87-4.05-7.71c-2.46-4.61-4.93-9.21-7.37-13.83h-.17c-11.2-.8-22.76-2.28-33.45-5.77-4.7-1.52-9.76-3.5-12.81-7.61s-3-9.78-6.55-13.72c-3-3.41-7.24-7.44-4.57-12.39C68.84,80.94,75.6,81.3,80.46,83A31.8,31.8,0,0,1,93,91.36a43.38,43.38,0,0,1,4.7,6c1.45,2.2,2.53,4.58,3.79,6.89a9.6,9.6,0,0,0,6,4.67,70.86,70.86,0,0,1,7.69,2.45,12.33,12.33,0,0,1,1.43.78c-1.8-3.67-3.54-7.37-5.17-11.13-5.75-13.13-10.2-26.79-12-41.07a1.9,1.9,0,0,1,3.8,0c.22,1.73.48,3.45.77,5.17a142.82,142.82,0,0,0,8.71,29.27c-.63-9.78.57-19.61,5-28.5,1.39-2.82,3.32-5.35,4.64-8.21s1.67-6.11,2.1-9.17c.76-5.48,2.2-11.19,6.86-14.65,3.8-2.85,10-3.9,13.82-.44,4.57,4.17,2,10.76-.79,15.07a53.79,53.79,0,0,0-4.67,7.69,24.69,24.69,0,0,0-2.12,9c-.15,3,.23,6.27-.77,9.24a14.84,14.84,0,0,1-4.64,6.43c-1.91,1.64-4.05,3.06-5.93,4.68a18.74,18.74,0,0,0-4.64,6.1c-2.24,4.62-2.91,9.93-3,15a2.28,2.28,0,0,1-.13.68c5.74,12,12.25,23.68,18.44,35.49l.66,1.24.49,1c.39.73.76,1.46,1.14,2.19q2.09,4.08,4.05,8.15a35,35,0,0,1-.05-8.49,15.16,15.16,0,0,1,.3-1.66,19.36,19.36,0,0,1,.47-2c.17-.61.37-1.21.59-1.81.7-2,1.57-4,2.41-5.94a34,34,0,0,0,2.76-11.48c.2-3.89-.61-7.6-.9-11.45-.27-3.45.39-6.91,2.81-9.52a16.74,16.74,0,0,1,7.21-4c1.38-.44,2.81-.81,4.22-1.24l1.34,1.57c.42.52.85,1,1.24,1.59a4.21,4.21,0,0,1,.38.48,34.13,34.13,0,0,1,4.77,9.35c2.3,6.71,3.25,13.78,4.68,20.72.57,2.71,1.2,5.48,2,8.14.2.66.41,1.32.63,2s.47,1.29.73,1.92c-5.19,4.53-11.38,7.86-16.9,11.9-.44.31-.87.63-1.3,1s-1.07.81-1.59,1.24-1,.82-1.51,1.25c-3.41,2.92-6.34,6.3-7.79,10.69,1.93,4.63,3.68,9.32,5.21,14.1a161.05,161.05,0,0,1,4.74,18.61c.11.49.2,1,.29,1.48a211.87,211.87,0,0,1,2.86,21.59c.1,1.25.2,2.5.28,3.76s.15,2.36.22,3.54v.18c.32,5.76.46,11.53.48,17.31a26.72,26.72,0,0,1,4.06-7c.82-1,1.69-1.93,2.58-2.84l.73-.73c.21-.21.44-.43.66-.62.51-.48,1-.94,1.54-1.4s.8-.75,1.18-1.14c2.21-2.38,3.21-5.63,4.35-8.6a49.2,49.2,0,0,1,5.16-10.18c.41-.6.84-1.17,1.29-1.73s.87-1,1.35-1.55a19.56,19.56,0,0,1,1.73-1.68c-.49,5.16-.79,10.34-.92,15.51C187.29,237.09,187.53,246,188,255Z"/><path class="cls-17" d="M207,221a22.69,22.69,0,0,0,.24,5.46c.17,1,.38,1.92.6,2.87-2.38,1-4.85,1.91-7.1,3.06a21.33,21.33,0,0,0-9.42,9.84q-.09-4-.08-8a223.51,223.51,0,0,1,1.32-24.54,20.25,20.25,0,0,1,7.82-2.33,15.84,15.84,0,0,1,4.9.35c1.59.37,3.71,1,4.2,2.74s-.88,3.55-1.39,5.09A22.44,22.44,0,0,0,207,221Z"/><path class="cls-18" d="M188.65,265.69c-.25-3.57-.47-7.12-.65-10.71a8.19,8.19,0,0,1,.64-1C188.39,257.87,188.55,261.82,188.65,265.69Z"/><path class="cls-18" d="M244.83,45.09q-.22,3.06-.54,6.11c-.36,3.47-.78,6.92-1.3,10.36-.09.21-.16.42-.23.64l-3.29-2.81q1-7.12,1.55-14.33C241.26,42.65,245,42.64,244.83,45.09Z"/><path class="cls-18" d="M188.66,265.79V266a1.71,1.71,0,0,0,0,.32Z"/><path class="cls-13" d="M286.09,175.05c-5.33-4.58-11.88.12-17,2.5a68.31,68.31,0,0,1-19.19,5.62c-5.87.83-12.11,1.12-17.29,4.35-8.59,5.33-9.75,16-12,25-1,4.25-2.39,8.73-5.41,12a20.67,20.67,0,0,1-7.38,4.77c-2.38,1-4.85,1.91-7.1,3.06a21.33,21.33,0,0,0-9.42,9.84q-.09-4-.08-8a223.51,223.51,0,0,1,1.32-24.54q.39-3.49.93-7l.05-.06c.43-.56.83-1.13,1.2-1.72,4.46-6.33,9.58-12.51,16.46-16.2,7.84-4.22,17.23-3.82,25.5-6.66a22.57,22.57,0,0,0,10.51-6.89c3.14-3.9,4.44-8.72,6.39-13.24A28.47,28.47,0,0,1,262,147.21c3.66-3,7.75-5.43,11.6-8.19,7.46-5.36,15.15-13.83,13.67-23.81a10.46,10.46,0,0,0-3-6.27,5,5,0,0,0-6.58-.53c-1.76,1.35-2.7,3.55-4.34,5.09a14,14,0,0,1-6,3.19c-5.27,1.36-10.76-1.36-15.9,1-4.42,2-6.88,6.81-9.36,10.75-5.44,8.63-10.93,17.31-17.94,24.77a78.17,78.17,0,0,1-11.94,10.09c-3.85,2.7-7.16,5.59-9.53,9.69-2.67,4.62-4.32,9.68-6.09,14.68.11-.43.22-.86.34-1.28,4.18-15.19,11.08-29.4,18-43.46,7.1-14.35,14.1-28.72,19.15-44,.07-.2.13-.41.2-.62a1.79,1.79,0,0,0,.86-.79c2.17-3.83,7.42-3.82,11.24-4.07a24.73,24.73,0,0,0,7.23-1.21,12.41,12.41,0,0,0,5.65-4.42c2.64-3.63,3.69-8.15,7.78-10.5s9-3,13-5.49,7.26-6.82,7.56-11.81a11,11,0,0,0-6.89-11.2,9.6,9.6,0,0,0-6.64,0c-2.51,1-3.74,3.17-5.76,4.78-3.57,2.89-8.68,2.91-12.57,5.31A20.27,20.27,0,0,0,250,65.06c-1.88,2.73-3.67,5.52-5.51,8.28l-5.29,8q2.35-9.78,3.83-19.74a4.88,4.88,0,0,0-.23.64l-3.29-2.81a219.2,219.2,0,0,1-7.41,33.48c-1.53,5.09-3.28,10-5.2,14.87A67.82,67.82,0,0,0,226.79,97a36.74,36.74,0,0,0-2-9.21,75.31,75.31,0,0,0-4.15-8.58,29.55,29.55,0,0,1-3.29-9.08c-.51-3.29-.43-6.65-.67-10-.38-5.58-1.76-11.7-6.37-15.33-5.37-4.26-12.58-3.34-18.87-2.29a1.83,1.83,0,0,0-1.32,1.33,20.91,20.91,0,0,0,2.56,16.83,42.94,42.94,0,0,0,5.8,6.4,14.14,14.14,0,0,1,4.23,7.37c1.17,5.86-.28,11.89,1.36,17.71a25.3,25.3,0,0,0,9.56,13.63c2.54,1.84,5.42,2.79,6.49,6,.91,2.76,1,5.73,1.45,8.58-2.53,5.66-5.23,11.25-8,16.82s-5.41,10.92-8,16.43c.25-1.16.47-2.33.68-3.49V150c.69-3.92,1.1-7.75-.52-11.51a26.48,26.48,0,0,0-5.56-7.47c-2.1-2.21-4.33-4.44-5.53-7.29-1.4-3.28-1.45-7-1.34-10.49.22-7.4,1.56-15.46-2.44-22.15l-.15-.22a25.68,25.68,0,0,0-1.89-2.66c-1.19-1.45-2.52-2.82-3.83-4.15l-1.62-1.62-.56-.57-9.85-10c-2.59-2.65-5.4-6.47-9.44-6.64-3.45-.15-6.4,2.25-8.24,5-4.57,6.78-1.79,15.63,2.73,21.65,1.56,2,3.33,4,5.07,5.93l1.34,1.57c.42.52.85,1,1.24,1.59a4.21,4.21,0,0,1,.38.48,34.13,34.13,0,0,1,4.77,9.35c2.3,6.71,3.25,13.78,4.68,20.72.57,2.71,1.2,5.48,2,8.14.2.66.41,1.32.63,2s.47,1.29.73,1.92a34,34,0,0,0,3.76,7c4.06,5.69,9.82,10,13.4,16.08a21.65,21.65,0,0,1,2,4.47c-1.18,3.06-2.29,6.2-3.28,9.36a157.6,157.6,0,0,0-6.31,32.21c-.49,5.16-.79,10.34-.92,15.51-.23,9,0,17.91.48,26.85a8.19,8.19,0,0,1,.64-1c-.25,3.89-.06,7.84,0,11.72v.6c.24,3.52.51,7,.79,10.54.15,2,.5,6.46.67,8.49.19,2.43,4.39,2.17,4.19-.29-.44-5.54-1.47-13.23-1.85-18.79,1.38-3.37,5.07-4.57,8.3-5.32,4.2-1,8.46-1.28,12.42-3.13s7.53-4.88,11-7.65a39.46,39.46,0,0,1,11-6.54c7.48-2.73,16.61-3.64,22.3-9.83,3.13-3.42,4.33-7.77,4.87-12.28s.4-9.28,2.12-13.55c2-5,6.95-7.48,11.48-9.78s9.35-5,12-9.63a1.76,1.76,0,0,0,.14-.23l.11-.24C290.1,183.86,289.73,178.17,286.09,175.05Zm-93.81,88a.49.49,0,0,1,.11-.14c0,1,0,1.9.06,2.81C192.39,264.81,192.33,263.92,192.28,263Z"/><path class="cls-18" d="M192.45,265.7c-.06-.89-.12-1.78-.17-2.67a.49.49,0,0,1,.11-.14C192.41,263.85,192.43,264.79,192.45,265.7Z"/><path class="cls-19" d="M224.84,277.24c-2.13,4.36-24.41,7.79-51.6,7.79-28.61,0-51.79-3.79-51.79-8.47,0,0-9,43.33,23.43,80.1l.26.31c.79,2.42,13,4.31,27.86,4.31,13.81,0,25.28-1.63,27.52-3.81l.22-.75.09-.32a.72.72,0,0,1,.08.32,2.68,2.68,0,0,1-.39.75C231.22,323.23,225.79,282.93,224.84,277.24Z"/><path class="cls-20" d="M288.33,24.36c-2,6.37-7.09,11.28-12,15.9-3.18,3-6.41,6-10.29,8-4.16,2.17-8.89,3.1-13.25,4.87-4.14,1.67-8.2,4.41-9.76,8.45h0A4.69,4.69,0,0,1,241.1,61a4.74,4.74,0,0,1-1.47-1.35l-.16-.2L239,59A64.65,64.65,0,0,1,224.5,13a6.16,6.16,0,0,1,.54-2.35c1.15-2.21,4.37-2.42,6.84-1.76s5,1.86,7.45,1.35,4.27-2.52,6-4.32c4.06-4.14,10.37-7.78,15.42-4.89,2,1.16,3.83,7.81,5.84,9C271,12.7,276.44,6,281.35,7.61,287.83,9.79,290.31,18,288.33,24.36Z"/><path class="cls-20" d="M104,64.47l17.88-24a8.74,8.74,0,0,0,.93-9.16C119,24,108.28,29.74,101.56,26.1c-2-1.08-3.63-3.05-5.87-3.21-5.07-.48-6.62,7.42-11.25,9.64s-10.81-2.15-15.08,1.4A6.92,6.92,0,0,0,67,39.51c.12,3.73,2.36,6.79,4.82,9.43,7.68,8.29,17.23,13.93,28.38,15.76a5.85,5.85,0,0,0,3.65-.18Z"/></svg>